<svg width="360" height="460" viewBox="0 0 360 460" fill="none" xmlns="http://www.w3.org/2000/svg">
<path fill-rule="evenodd" clip-rule="evenodd" d="M32.0944 16.9111H327.906C338.279 16.9111 346.766 25.4045 346.766 35.7699V439.725H13.2344V35.7699C13.2344 25.3962 21.7207 16.9111 32.0944 16.9111ZM101.67 331.006V209.948H97.0094V331.006H26.516V60.5532H333.484V331.006H101.67Z" fill="url(#paint0_linear_270_2)"/>
<path d="M333.484 69.7705H26.5156V75.4694H333.484V69.7705Z" fill="#008B47" fill-opacity="0.26"/>
<path d="M48.7009 439.725H33.2354V450.834H48.7009V439.725Z" fill="#434242"/>
<path d="M326.764 439.725H311.299V450.834H326.764V439.725Z" fill="#434242"/>
<path d="M57.852 42.656V36.116C57.852 35.3 57.828 34.904 57.744 34.352C58.224 34.376 58.524 34.388 59.52 34.388H62.028C63.504 34.388 64.692 34.796 65.496 35.576C66.372 36.44 66.816 37.7 66.816 39.296C66.816 40.94 66.336 42.26 65.424 43.172C64.62 43.964 63.48 44.372 62.052 44.372H59.52C58.596 44.372 58.26 44.384 57.756 44.408C57.828 43.88 57.852 43.484 57.852 42.656ZM60.228 42.272H61.836C62.616 42.272 63.168 42.068 63.6 41.636C64.092 41.132 64.356 40.328 64.356 39.332C64.356 38.312 64.128 37.568 63.66 37.1C63.24 36.68 62.664 36.488 61.8 36.488H60.228V42.272ZM77.6333 44.372H74.8253C74.7293 43.796 74.6573 43.484 74.5373 43.076L74.2133 42.056H70.7933L70.4693 43.076C70.3133 43.556 70.2293 43.928 70.1693 44.372H67.3613C67.5413 44.012 67.6493 43.724 67.9373 42.908L70.5293 35.684C70.7453 35.096 70.8533 34.736 70.9133 34.388H74.0453C74.1293 34.736 74.2133 35.048 74.4533 35.684L77.0573 42.908C77.2853 43.544 77.4773 44.036 77.6333 44.372ZM73.6253 40.04L72.4853 36.44L71.3693 40.04H73.6253ZM81.0428 44.372H78.4628C78.5348 43.844 78.5588 43.304 78.5588 42.596V36.104C78.5588 35.456 78.5348 34.916 78.4628 34.352C79.0268 34.376 79.4588 34.388 80.2268 34.388H82.8548C85.2308 34.388 86.5388 35.528 86.5388 37.616C86.5388 39.752 85.1708 41.024 82.8428 41.024H80.9468V42.56C80.9468 43.268 80.9828 43.856 81.0428 44.372ZM80.9468 38.984H82.7348C83.5748 38.984 84.0668 38.516 84.0668 37.688C84.0668 36.86 83.5988 36.428 82.7348 36.428H80.9468V38.984ZM96.5123 44.372H93.7043C93.6083 43.796 93.5363 43.484 93.4163 43.076L93.0923 42.056H89.6723L89.3483 43.076C89.1923 43.556 89.1083 43.928 89.0483 44.372H86.2403C86.4203 44.012 86.5283 43.724 86.8163 42.908L89.4083 35.684C89.6243 35.096 89.7323 34.736 89.7923 34.388H92.9243C93.0083 34.736 93.0923 35.048 93.3323 35.684L95.9363 42.908C96.1643 43.544 96.3563 44.036 96.5123 44.372ZM92.5043 40.04L91.3643 36.44L90.2483 40.04H92.5043ZM101.505 36.512V42.56C101.505 43.28 101.529 43.808 101.601 44.372H98.9487C99.0207 43.808 99.0447 43.316 99.0447 42.56V36.512H97.6287C96.8727 36.512 96.6687 36.524 95.8167 36.596V34.304C96.2127 34.352 96.8727 34.388 97.6047 34.388H102.861C103.701 34.388 104.181 34.364 104.733 34.304V36.596C104.193 36.536 103.725 36.512 102.861 36.512H101.505ZM110.966 38.336L113.858 42.596C114.566 43.652 114.722 43.868 115.13 44.372H112.01C111.842 43.988 111.494 43.352 111.182 42.848L109.322 39.872L108.11 41.084V42.596C108.11 43.34 108.134 43.736 108.206 44.372H105.662C105.734 43.76 105.758 43.316 105.758 42.596V36.164C105.758 35.432 105.734 34.964 105.662 34.388H108.206C108.134 35.012 108.11 35.408 108.11 36.164V38.288L110.498 35.732C110.966 35.24 111.278 34.832 111.542 34.388H114.782C114.566 34.604 114.482 34.7 114.314 34.868C113.69 35.492 113.69 35.492 113.474 35.708L110.966 38.336ZM125.598 44.372H122.79C122.694 43.796 122.622 43.484 122.502 43.076L122.178 42.056H118.758L118.434 43.076C118.278 43.556 118.194 43.928 118.134 44.372H115.326C115.506 44.012 115.614 43.724 115.902 42.908L118.494 35.684C118.71 35.096 118.818 34.736 118.878 34.388H122.01C122.094 34.736 122.178 35.048 122.418 35.684L125.022 42.908C125.25 43.544 125.442 44.036 125.598 44.372ZM121.59 40.04L120.45 36.44L119.334 40.04H121.59ZM129.884 35.888L132.164 39.296C132.512 39.812 132.74 40.196 133.028 40.724C132.98 40.172 132.956 39.62 132.956 38.948V36.212C132.956 35.42 132.932 34.94 132.86 34.388H135.416C135.344 34.928 135.32 35.432 135.32 36.212V42.584C135.32 43.316 135.356 43.868 135.416 44.372H132.788C132.572 43.916 132.296 43.472 131.888 42.848L129.668 39.5C129.344 39.02 129.14 38.66 128.804 38.024C128.864 38.564 128.888 39.224 128.888 39.812V42.5C128.888 43.328 128.912 43.856 128.984 44.372H126.428C126.5 43.904 126.524 43.376 126.524 42.488V36.176C126.524 35.48 126.5 34.94 126.428 34.388H129.032C129.152 34.712 129.416 35.192 129.884 35.888ZM146.216 38.336L149.108 42.596C149.816 43.652 149.972 43.868 150.38 44.372H147.26C147.092 43.988 146.744 43.352 146.432 42.848L144.572 39.872L143.36 41.084V42.596C143.36 43.34 143.384 43.736 143.456 44.372H140.912C140.984 43.76 141.008 43.316 141.008 42.596V36.164C141.008 35.432 140.984 34.964 140.912 34.388H143.456C143.384 35.012 143.36 35.408 143.36 36.164V38.288L145.748 35.732C146.216 35.24 146.528 34.832 146.792 34.388H150.032C149.816 34.604 149.732 34.7 149.564 34.868C148.94 35.492 148.94 35.492 148.724 35.708L146.216 38.336ZM158.76 42.212V44.456C158.244 44.396 157.812 44.372 156.78 44.372H153C152.088 44.372 151.752 44.384 151.236 44.408C151.308 43.928 151.332 43.484 151.332 42.656V36.104C151.332 35.36 151.308 34.94 151.236 34.352C151.728 34.376 152.064 34.388 153 34.388H156.828C157.644 34.388 158.052 34.364 158.616 34.304V36.548C158.064 36.488 157.632 36.464 156.828 36.464H153.708V38.228H156.3C157.092 38.228 157.38 38.216 158.1 38.144V40.364C157.536 40.304 157.128 40.28 156.3 40.28H153.708V42.296H156.804C157.716 42.296 158.244 42.272 158.76 42.212ZM164.094 34.388H166.734C166.65 34.916 166.638 35.276 166.638 36.32V41.324C166.638 42.308 166.374 43.064 165.81 43.628C165.198 44.252 164.226 44.6 163.05 44.6C161.742 44.6 160.758 44.228 160.086 43.484C159.738 43.1 159.57 42.8 159.294 42.08L161.634 41.276C161.886 42.212 162.246 42.548 163.014 42.548C163.818 42.548 164.19 42.152 164.19 41.324V36.332C164.19 35.312 164.166 34.94 164.094 34.388ZM174.805 34.388H177.397C177.325 34.904 177.301 35.336 177.301 36.2V40.328C177.301 43.064 175.657 44.612 172.765 44.612C171.277 44.612 170.065 44.192 169.345 43.436C168.649 42.692 168.289 41.648 168.289 40.304V36.2C168.289 35.372 168.265 34.844 168.193 34.388H170.785C170.713 34.832 170.689 35.312 170.689 36.2V40.328C170.689 41.84 171.373 42.56 172.777 42.56C174.217 42.56 174.901 41.84 174.901 40.328V36.2C174.901 35.3 174.877 34.928 174.805 34.388ZM183.981 36.512V42.56C183.981 43.28 184.005 43.808 184.077 44.372H181.425C181.497 43.808 181.521 43.316 181.521 42.56V36.512H180.105C179.349 36.512 179.145 36.524 178.293 36.596V34.304C178.689 34.352 179.349 34.388 180.081 34.388H185.337C186.177 34.388 186.657 34.364 187.209 34.304V36.596C186.669 36.536 186.201 36.512 185.337 36.512H183.981ZM196.79 44.372H193.982C193.886 43.796 193.814 43.484 193.694 43.076L193.37 42.056H189.95L189.626 43.076C189.47 43.556 189.386 43.928 189.326 44.372H186.518C186.698 44.012 186.806 43.724 187.094 42.908L189.686 35.684C189.902 35.096 190.01 34.736 190.07 34.388H193.202C193.286 34.736 193.37 35.048 193.61 35.684L196.214 42.908C196.442 43.544 196.634 44.036 196.79 44.372ZM192.782 40.04L191.642 36.44L190.526 40.04H192.782ZM201.075 35.888L203.355 39.296C203.703 39.812 203.931 40.196 204.219 40.724C204.171 40.172 204.147 39.62 204.147 38.948V36.212C204.147 35.42 204.123 34.94 204.051 34.388H206.607C206.535 34.928 206.511 35.432 206.511 36.212V42.584C206.511 43.316 206.547 43.868 206.607 44.372H203.979C203.763 43.916 203.487 43.472 203.079 42.848L200.859 39.5C200.535 39.02 200.331 38.66 199.995 38.024C200.055 38.564 200.079 39.224 200.079 39.812V42.5C200.079 43.328 200.103 43.856 200.175 44.372H197.619C197.691 43.904 197.715 43.376 197.715 42.488V36.176C197.715 35.48 197.691 34.94 197.619 34.388H200.223C200.343 34.712 200.607 35.192 201.075 35.888ZM212.211 42.656V36.116C212.211 35.3 212.187 34.904 212.103 34.352C212.583 34.376 212.883 34.388 213.879 34.388H216.387C217.863 34.388 219.051 34.796 219.855 35.576C220.731 36.44 221.175 37.7 221.175 39.296C221.175 40.94 220.695 42.26 219.783 43.172C218.979 43.964 217.839 44.372 216.411 44.372H213.879C212.955 44.372 212.619 44.384 212.115 44.408C212.187 43.88 212.211 43.484 212.211 42.656ZM214.587 42.272H216.195C216.975 42.272 217.527 42.068 217.959 41.636C218.451 41.132 218.715 40.328 218.715 39.332C218.715 38.312 218.487 37.568 218.019 37.1C217.599 36.68 217.023 36.488 216.159 36.488H214.587V42.272ZM231.993 44.372H229.185C229.089 43.796 229.017 43.484 228.897 43.076L228.573 42.056H225.153L224.829 43.076C224.673 43.556 224.589 43.928 224.529 44.372H221.721C221.901 44.012 222.009 43.724 222.297 42.908L224.889 35.684C225.105 35.096 225.213 34.736 225.273 34.388H228.405C228.489 34.736 228.573 35.048 228.813 35.684L231.417 42.908C231.645 43.544 231.837 44.036 231.993 44.372ZM227.985 40.04L226.845 36.44L225.729 40.04H227.985ZM241.69 44.372H238.882C238.81 43.988 238.666 43.496 238.294 42.5C237.91 41.456 237.766 41.18 237.466 40.916C237.214 40.688 236.914 40.592 236.53 40.592H235.306V42.56C235.306 43.376 235.33 43.82 235.402 44.372H232.822C232.894 43.82 232.918 43.46 232.918 42.572V36.116C232.918 35.372 232.894 34.928 232.822 34.352C233.35 34.376 233.794 34.388 234.61 34.388H237.73C239.674 34.388 240.802 35.396 240.802 37.124C240.802 37.976 240.562 38.648 240.094 39.092C239.794 39.368 239.542 39.5 238.954 39.692C239.566 39.884 239.842 40.16 240.226 41.012C240.406 41.396 240.574 41.804 241.114 43.1C241.246 43.436 241.39 43.736 241.69 44.372ZM235.306 38.54H237.178C237.886 38.54 238.318 38.108 238.318 37.424C238.318 36.752 237.934 36.404 237.19 36.404H235.306V38.54ZM242.689 34.388H245.329C245.257 34.88 245.233 35.288 245.233 36.164V42.596C245.233 43.424 245.257 43.868 245.329 44.372H242.689C242.761 43.904 242.785 43.4 242.785 42.596V36.164C242.785 35.264 242.761 34.916 242.689 34.388Z" fill="white"/>
<g clip-path="url(#clip0_270_2)">
<path d="M314 36.5018C314 17.9995 299 3.00098 280.5 3.00098C261.998 3.00098 247 17.9995 247 36.5018C247 55.0024 261.998 70.0001 280.5 70.0001C299 70.0001 314 55.0024 314 36.5018Z" fill="#008B47"/>
<path d="M296.307 28.0984L296.305 28.0976C296.516 27.7875 296.678 27.4284 296.765 27.0015L296.785 26.7687L293.762 27.7858L294.182 23.2031L292.677 24.5938C292.677 24.5938 291.923 27.4937 289.205 29.6171L288.98 31.1177L290.385 30.6281L289.072 39.5717L292.503 38.6432L292.967 34.9032C293.215 32.9001 293.517 29.9143 293.567 29.5123C295.024 29.0373 295.881 28.7461 296.307 28.0984ZM300.97 38.1527C300.876 38.1639 300.798 38.1759 300.729 38.1914L300.487 38.9309L300.661 38.9086L300.747 38.6432C300.774 38.6415 300.803 38.6423 300.831 38.6398C300.839 38.638 300.864 38.6346 300.873 38.6312L300.962 38.8777L301.162 38.8554L301.033 38.5831C301.137 38.5221 301.201 38.4637 301.229 38.3735C301.272 38.242 301.205 38.1244 300.97 38.1527ZM301.071 38.37C301.044 38.4542 300.964 38.4954 300.867 38.5058C300.843 38.5092 300.817 38.5092 300.793 38.51L300.861 38.2927C300.892 38.285 300.925 38.2824 300.955 38.279C301.042 38.2704 301.095 38.2996 301.071 38.37Z" fill="#FFFFFE"/>
<path d="M301.71 29.1156C301.71 28.6191 301.555 28.2077 301.267 27.9216C300.982 27.6339 300.567 27.4775 300.064 27.4775C299.976 27.4775 299.884 27.4827 299.79 27.493C298.624 27.6141 297.212 28.3202 296.041 29.5769L296.039 29.576C295.017 30.6471 294.373 31.9451 294.017 33.3031C293.836 33.9963 293.76 34.589 293.759 35.0966C293.759 36.197 294.12 36.8945 294.539 37.3162C294.763 37.543 294.975 37.683 295.278 37.8015C295.606 37.9381 295.956 38 296.312 38C297.87 37.9974 299.564 36.8318 300.474 35.5948C300.475 35.594 300.476 35.594 300.476 35.5923L300.476 35.5914C300.933 35.0047 301.342 34.3141 301.665 33.5204L301.68 33.4826L301.306 33.0695L301.262 33.1476C300.147 35.1319 298.948 35.8113 298.163 35.8087C298.101 35.8087 298.041 35.8053 297.984 35.7967C297.384 35.7117 296.986 35.1112 296.982 34.1526C296.982 33.8949 297.011 33.6149 297.074 33.3134C297.568 30.6575 298.295 29.3724 298.832 28.9593C298.975 28.8467 299.104 28.7943 299.206 28.7952C299.278 28.7952 299.341 28.8184 299.401 28.8708C299.489 28.9455 299.554 29.107 299.553 29.3372C299.554 29.454 299.532 29.5872 299.5 29.7366C299.237 31.0208 298.592 32.1641 297.635 33.1201C297.557 33.1932 297.293 33.4053 297.288 33.4096C297.288 33.4096 297.253 33.4337 297.217 33.4637C297.181 33.5032 297.137 33.5204 297.126 33.5995C297.124 33.6166 297.133 33.645 297.151 33.6604C297.169 33.6793 297.195 33.6836 297.211 33.6836C297.249 33.681 297.272 33.669 297.305 33.6604C298.38 33.3289 300.185 32.3892 300.879 31.3077C301.244 30.837 301.527 30.2924 301.652 29.6688C301.691 29.4747 301.71 29.29 301.71 29.1156ZM300.941 37.8385C300.534 37.8015 300.178 38.1005 300.138 38.5059C300.101 38.9122 300.399 39.2704 300.806 39.3073C301.212 39.3425 301.572 39.0445 301.608 38.6382C301.645 38.2328 301.347 37.8746 300.941 37.8385ZM300.816 39.2025C300.468 39.1708 300.213 38.8641 300.244 38.5162C300.275 38.1666 300.584 37.9115 300.932 37.9424C301.28 37.9725 301.535 38.2791 301.505 38.6296C301.471 38.9766 301.164 39.2326 300.816 39.2025ZM269.029 41.7116C269.029 39.9945 267.988 38.828 266.769 37.8471C266.04 37.2613 265.66 36.6084 265.661 36.0432C265.661 35.892 265.687 35.7452 265.744 35.606C265.822 35.411 265.929 35.2444 266.057 35.1009C266.317 34.8725 266.954 34.5082 267.604 34.4627C267.668 34.4576 267.731 34.4558 267.792 34.4541C267.802 34.4533 267.813 34.4533 267.82 34.4533C269.051 34.4533 269.923 35.2092 270.341 35.6773L270.424 35.7684L270.566 35.058L271.056 32.6142L271.002 32.5987C270.377 32.4149 269.681 32.3187 268.962 32.3187C267.498 32.3187 265.935 32.7121 264.677 33.5565C264.674 33.5591 264.674 33.5591 264.666 33.5651C263.514 34.3141 262.557 35.5047 262.267 37.2733C262.227 37.5138 262.207 37.7457 262.207 37.9699C262.206 39.1192 262.737 40.0546 263.808 40.7461C264.697 41.3199 265.649 42.0844 265.646 43.1547C265.646 43.5172 265.539 43.92 265.278 44.3701C265.075 44.7257 264.632 45.1561 264.238 45.3588C264.233 45.3597 264.223 45.364 264.215 45.3691C263.726 45.638 263.148 45.7883 262.56 45.7883C261.781 45.7883 260.984 45.5254 260.341 44.9293L260.267 44.8623L259.129 48.8248L259.192 48.8385C259.647 48.9407 260.131 48.9682 260.585 48.9871C260.69 48.9923 260.797 48.994 260.904 48.994C262.463 48.994 264.198 48.5155 265.628 47.5432C265.629 47.5415 265.63 47.5415 265.631 47.5406C265.631 47.5406 265.634 47.5406 265.635 47.5397C265.64 47.5383 265.645 47.5353 265.649 47.5312C265.654 47.5277 265.651 47.5286 265.658 47.5243C265.664 47.5191 265.673 47.5131 265.684 47.5037C266.027 47.2649 266.352 46.9986 266.654 46.7014L266.651 46.6997C267.515 45.8699 268.214 44.8262 268.67 43.5747C268.918 42.8893 269.029 42.2725 269.029 41.7116Z" fill="#FFFFFE"/>
<path d="M277.639 39.1201C277.724 38.7568 277.767 38.3934 277.767 38.0429C277.767 37.3025 277.575 36.6162 277.168 36.1111C276.761 35.6052 276.138 35.2891 275.3 35.2891C274.903 35.2891 274.458 35.3587 273.964 35.5124L269.144 37.202L269.285 37.2656C269.816 37.5009 269.974 38.0309 269.975 38.7413C269.975 39.1957 269.908 39.7145 269.835 40.2539L267.904 50.7583L271.246 48.3979L272.971 38.6296C273.098 37.9725 273.316 37.5482 273.555 37.3042C273.806 37.0963 274.002 37.0551 274.152 37.0543C274.166 37.0543 274.18 37.0543 274.192 37.0551C274.548 37.074 274.832 37.3764 274.892 37.8497C274.903 37.9399 274.922 38.1374 274.922 38.4175C274.922 38.9698 274.849 39.8416 274.501 40.8475C273.976 42.367 273.523 43.3162 272.952 44.1236C272.952 44.1253 272.952 44.1253 272.949 44.1253C272.942 44.1365 272.754 44.365 272.564 44.5935C272.471 44.7077 272.378 44.8228 272.308 44.907C272.273 44.9491 272.244 44.9843 272.224 45.0092C272.214 45.0221 272.205 45.0316 272.2 45.0376C272.197 45.041 272.195 45.0427 272.194 45.0444C272.19 45.0489 272.186 45.0541 272.184 45.0599C272.114 45.1363 271.98 45.2609 271.877 45.3708C271.846 45.4095 271.819 45.4095 271.807 45.4774C271.807 45.4928 271.811 45.504 271.815 45.5143C271.82 45.5392 271.863 45.5676 271.887 45.5624C271.924 45.5607 271.939 45.5495 271.966 45.5392C273.707 44.889 275.443 43.847 276.689 41.6352L276.686 41.6343C277.228 40.662 277.493 39.748 277.639 39.1201Z" fill="#FFFFFE"/>
<path d="M284.68 31.7329C282.928 31.9605 281.941 32.9586 280.91 34.9514C280.831 34.68 280.398 33.9361 279.557 33.559L277.839 34.1603L277.976 34.2797C278.321 34.7212 278.467 35.4445 278.466 36.3043C278.466 36.8068 278.417 37.3549 278.336 37.9201C278.299 38.1365 278.029 39.7368 277.767 41.2812C277.507 42.8248 277.255 44.316 277.255 44.316L277.201 44.6304L280.596 42.8557L281.511 37.0018C281.761 35.3792 283.029 34.8698 284.088 34.8698L284.68 31.7329ZM283.699 41.4728L283.796 41.4384L287.072 40.2127L288.698 30.0098L285.374 31.525L283.699 41.4728Z" fill="#FFFFFE"/>
<path d="M308.549 22.7417C304.553 24.3635 299.891 25.1202 297.421 21.8828C296.323 20.401 295.73 18.1282 295.579 15.0625C294.711 16.6782 293.784 18.1565 292.794 19.4965L292.948 20.3838C293.645 19.4467 294.25 18.507 294.765 17.5939C294.935 19.0748 295.174 20.267 295.934 21.6637C297.048 23.8464 300.258 26.2446 307.509 23.6067C307.636 23.5612 307.562 23.5062 307.509 23.6067C301.856 34.739 304.142 39.1773 304.322 40.9589C282.514 41.5576 273.296 49.9033 266.759 54.9283C265.499 53.6906 260.113 49.3158 253.106 48.7772C255.957 45.2993 261.08 36.7507 260.608 28.4951C260.818 28.563 261.028 28.6266 261.234 28.6961C267.758 30.8874 273.313 31.1073 277.962 30.1358C277.439 29.8042 276.985 29.4177 276.619 28.989C271.608 29.4392 265.822 28.4273 259.144 25.901C258.908 25.8117 258.671 25.7206 258.433 25.6287C260.108 39.3569 254.871 45.1515 252.19 49.2024C258.364 49.3768 264.801 53.8924 266.903 56.3388C278.064 45.5724 290.924 41.2329 308.268 43.8965C302.573 35.5997 306.096 27.1088 308.549 22.7417Z" fill="#FFFFFE"/>
<path d="M291.464 20.1592C290.608 22.6717 288.9 25.1336 285.952 26.7458C283.004 28.3581 280.01 28.4681 277.432 27.835C277.283 27.7964 277.064 27.9149 277.261 28.1735C278.816 30.2024 283.271 31.5226 287.38 29.3563C291.42 27.0645 292.713 22.6022 291.842 20.1979C291.732 19.893 291.513 20.0124 291.464 20.1592Z" fill="#6BB64A"/>
<path d="M291.745 17.9617C290.966 17.7341 290.883 18.551 289.563 17.9188V17.9197C287.289 16.8056 284.004 16.9688 281.364 18.3577C278.771 19.8309 276.861 22.5109 276.573 25.0242H276.572C276.391 26.4785 275.66 26.1065 275.432 26.8848C275.272 27.4276 275.708 27.9362 276.236 27.9817C276.531 28.0066 276.698 27.7188 276.257 27.5883C275.941 27.4345 275.907 27.1365 276.372 27.2473C279.819 28.0702 282.604 27.8262 285.637 26.1684C288.669 24.5089 290.376 22.2953 291.542 18.9496C291.698 18.4995 291.933 18.6876 291.892 19.0372C291.764 19.4778 292.095 19.4933 292.234 19.2305C292.482 18.7615 292.288 18.1207 291.745 17.9617Z" fill="#F8CD24"/>
</g>
<defs>
<linearGradient id="paint0_linear_270_2" x1="113.348" y1="424.542" x2="246.652" y2="32.0943" gradientUnits="userSpaceOnUse">
<stop stop-color="#008B47"/>
<stop offset="1" stop-color="#008B47"/>
</linearGradient>
<clipPath id="clip0_270_2">
<rect width="67" height="67" fill="white" transform="translate(247 3)"/>
</clipPath>
</defs>
</svg>
